<?xml version="1.0" encoding="UTF-8"?>
<svg version="1.1" xmlns="http://www.w3.org/2000/svg" width="500" height="500">
<path d="M0 0 C2.5 1.9375 2.5 1.9375 4.5 3.9375 C4.83 1.9575 5.16 -0.0225 5.5 -2.0625 C7.9788213 -2.25639096 10.45780931 -2.44290123 12.9375 -2.625 C13.64455078 -2.68107422 14.35160156 -2.73714844 15.08007812 -2.79492188 C16.88427837 -2.92440993 18.69231952 -2.99771608 20.5 -3.0625 C21.5 -2.0625 21.5 -2.0625 21.62025452 0.79115295 C21.61803391 2.06800461 21.61581329 3.34485626 21.61352539 4.66040039 C21.61367142 5.3628035 21.61381744 6.0652066 21.6139679 6.78889465 C21.61326872 9.12101278 21.60547617 11.453052 21.59765625 13.78515625 C21.59579208 15.39798438 21.59436818 17.01081307 21.59336853 18.62364197 C21.58954323 22.87665357 21.57971285 27.12963124 21.56866455 31.38262939 C21.55845069 35.7192743 21.55387096 40.05592467 21.54882812 44.39257812 C21.53809059 52.90756769 21.52101403 61.42252963 21.5 69.9375 C18.44730154 71.46384923 15.74154311 70.77544444 12.375 70.5 C11.09367187 70.39816406 9.81234375 70.29632813 8.4921875 70.19140625 C7.01105469 70.06572266 7.01105469 70.06572266 5.5 69.9375 C5.17 67.9575 4.84 65.9775 4.5 63.9375 C3.736875 64.68 2.97375 65.4225 2.1875 66.1875 C-4.60966838 71.77486792 -12.8551755 73.64982154 -21.51171875 73.32421875 C-29.51923739 72.28795163 -36.36177855 69.120887 -42.5 63.9375 C-42.5 63.2775 -42.5 62.6175 -42.5 61.9375 C-43.16 61.9375 -43.82 61.9375 -44.5 61.9375 C-53.71347471 49.6443123 -55.07724683 36.81324082 -53.1015625 21.9375 C-51.39817838 15.03547605 -47.19931041 9.18556215 -42.5 3.9375 C-41.84 3.9375 -41.18 3.9375 -40.5 3.9375 C-40.17 2.9475 -39.84 1.9575 -39.5 0.9375 C-37.171875 -0.4140625 -37.171875 -0.4140625 -34.25 -1.6875 C-33.29609375 -2.11289063 -32.3421875 -2.53828125 -31.359375 -2.9765625 C-21.11986436 -6.8653384 -9.27531888 -6.01094694 0 0 Z M-32.75 19.375 C-33.22953125 19.93058594 -33.7090625 20.48617188 -34.203125 21.05859375 C-38.09314752 26.69443964 -38.07694553 32.32123754 -37.5 38.9375 C-36.25061115 45.46839629 -32.74515339 49.95370615 -27.5 53.9375 C-22.66873021 56.80083912 -18.26978053 57.37541858 -12.75390625 56.53125 C-9.00008434 55.54237491 -5.87551144 53.84006099 -2.5 51.9375 C-2.5 51.2775 -2.5 50.6175 -2.5 49.9375 C-1.51 49.6075 -0.52 49.2775 0.5 48.9375 C5.28425026 43.33309256 5.34462491 36.91370333 5.01171875 29.83203125 C4.27499966 24.22509284 2.41774733 20.92552082 -1.5 16.9375 C-1.97179687 16.39351562 -2.44359375 15.84953125 -2.9296875 15.2890625 C-7.71082642 10.80519647 -13.65643199 11.37746271 -19.87890625 11.37109375 C-25.44959112 12.24245223 -29.1736271 15.12068828 -32.75 19.375 Z " fill="#0F0F0F" transform="translate(383.5,237.0625)"/>
<path d="M0 0 C5.28 0 10.56 0 16 0 C16.33 18.81 16.66 37.62 17 57 C17.33 56.34 17.66 55.68 18 55 C18.66 55 19.32 55 20 55 C20.27166992 54.41968018 20.54333984 53.83936035 20.82324219 53.24145508 C21.99487367 51.00976449 23.29575351 49.13482562 24.828125 47.13671875 C25.38113281 46.41419922 25.93414062 45.69167969 26.50390625 44.94726562 C27.08011719 44.20154297 27.65632813 43.45582031 28.25 42.6875 C28.81074219 41.95337891 29.37148437 41.21925781 29.94921875 40.46289062 C31.07274989 39.00074329 32.20864848 37.54801301 33.35693359 36.10522461 C34.4209653 34.74190434 35.4434293 33.34466575 36.41259766 31.91235352 C38.43540129 29.11086626 39.80923602 27.28774212 43.25 26.45629883 C45.82926902 26.31151815 48.29827224 26.38593206 50.875 26.5625 C52.19371094 26.60987305 52.19371094 26.60987305 53.5390625 26.65820312 C55.69416087 26.74019056 57.847526 26.86573677 60 27 C59.01 28.98 58.02 30.96 57 33 C56.34 33 55.68 33 55 33 C54.690625 33.61875 54.38125 34.2375 54.0625 34.875 C53.375 36.25 52.6875 37.625 52 39 C51.34 39 50.68 39 50 39 C49.34 40.65 48.68 42.3 48 44 C47.34 44 46.68 44 46 44 C45.66355469 44.78117187 45.66355469 44.78117187 45.3203125 45.578125 C43.50575891 48.90659609 41.21085825 51.77292576 38.875 54.75 C38.40707031 55.35199219 37.93914062 55.95398438 37.45703125 56.57421875 C36.30774993 58.05186616 35.15428765 59.52626005 34 61 C36.48337468 64.86736776 39.05539406 68.32718962 42.1875 71.6875 C47.00829552 76.9587633 51.52334642 82.43570876 56 88 C57.16015625 89.42699219 57.16015625 89.42699219 58.34375 90.8828125 C59.0759375 91.78773438 59.808125 92.69265625 60.5625 93.625 C61.55443359 94.85089844 61.55443359 94.85089844 62.56640625 96.1015625 C64 98 64 98 64 99 C57.4 99 50.8 99 44 99 C44 98.34 44 97.68 44 97 C43.34 97 42.68 97 42 97 C42 96.34 42 95.68 42 95 C41.34 95 40.68 95 40 95 C38.08984375 92.91796875 38.08984375 92.91796875 35.9375 90.1875 C35.22464844 89.29417969 34.51179688 88.40085937 33.77734375 87.48046875 C32 85 32 85 31 82 C30.34 82 29.68 82 29 82 C27.46387524 80.25692106 25.99459641 78.45450904 24.5625 76.625 C22.11330281 73.50197096 20.31089299 71.20726199 17 69 C16.67 78.9 16.34 88.8 16 99 C10.72 99 5.44 99 0 99 C0 66.33 0 33.66 0 0 Z " fill="#090909" transform="translate(178,208)"/>
<path d="M0 0 C7.50485576 4.14553937 10.67205082 10.00597149 13.0612793 18.06616211 C15.21666868 27.82682 14.27308125 38.32366647 14.125 48.25 C14.10490276 50.59959414 14.08665771 52.94920489 14.0703125 55.29882812 C14.02657673 61.01213417 13.95772604 66.72463093 13.875 72.4375 C8.595 72.4375 3.315 72.4375 -2.125 72.4375 C-2.13958252 71.09115479 -2.15416504 69.74480957 -2.16918945 68.35766602 C-2.22745086 63.33103758 -2.3046814 58.30484411 -2.38745117 53.27856445 C-2.42056998 51.10904027 -2.44864193 48.93943262 -2.47143555 46.76977539 C-2.50522212 43.63912611 -2.55754978 40.50923274 -2.61328125 37.37890625 C-2.61967117 36.41916397 -2.6260611 35.45942169 -2.63264465 34.47059631 C-2.76174684 28.46834614 -3.42373335 22.88347081 -6.125 17.4375 C-9.72010397 14.99554259 -13.41819959 15.16771182 -17.6875 15.1875 C-18.80253906 15.18234375 -19.91757812 15.1771875 -21.06640625 15.171875 C-24.05393327 15.43132818 -25.67626133 15.75537096 -28.125 17.4375 C-32.8947853 24.66031775 -33.28612364 30.83256597 -33.44140625 39.33203125 C-33.46218735 40.27938644 -33.48296844 41.22674164 -33.50437927 42.20280457 C-33.56957778 45.2184651 -33.62862132 48.2342101 -33.6875 51.25 C-33.73071348 53.29883674 -33.77432866 55.34766504 -33.81835938 57.39648438 C-33.92522866 62.41007047 -34.02657931 67.42374123 -34.125 72.4375 C-36.99133795 73.87066898 -39.49735501 73.56950361 -42.6875 73.5625 C-44.45287109 73.56636719 -44.45287109 73.56636719 -46.25390625 73.5703125 C-49.125 73.4375 -49.125 73.4375 -50.125 72.4375 C-50.21936529 70.19820114 -50.24242327 67.9558825 -50.23852539 65.71459961 C-50.23867142 65.0121965 -50.23881744 64.3097934 -50.2389679 63.58610535 C-50.23826872 61.25398722 -50.23047617 58.921948 -50.22265625 56.58984375 C-50.22079208 54.97701562 -50.21936818 53.36418693 -50.21836853 51.75135803 C-50.21454323 47.49834643 -50.20471285 43.24536876 -50.19366455 38.99237061 C-50.18345069 34.6557257 -50.17887096 30.31907533 -50.17382812 25.98242188 C-50.16309059 17.46743058 -50.1454937 8.95247341 -50.125 0.4375 C-45.175 0.4375 -40.225 0.4375 -35.125 0.4375 C-34.465 1.7575 -33.805 3.0775 -33.125 4.4375 C-32.51011719 4.08816406 -31.89523437 3.73882812 -31.26171875 3.37890625 C-30.45347656 2.92386719 -29.64523437 2.46882812 -28.8125 2 C-28.01199219 1.54753906 -27.21148437 1.09507812 -26.38671875 0.62890625 C-19.17703841 -3.16893918 -7.57972515 -3.03708165 0 0 Z " fill="#0B0B0B" transform="translate(470.125,234.5625)"/>
<path d="M0 0 C4.95 0 9.9 0 15 0 C15.90473566 4.52367831 15.99146879 6.27231201 15.10717773 10.55517578 C14.88621933 11.64887482 14.66526093 12.74257385 14.43760681 13.86941528 C14.1887825 15.04946136 13.93995819 16.22950745 13.68359375 17.4453125 C13.30328758 19.30299759 13.30328758 19.30299759 12.91529846 21.19821167 C12.23575973 24.50690809 11.54766677 27.81359643 10.85565186 31.11968994 C10.17630172 34.3776156 9.50993624 37.63819727 8.84179688 40.8984375 C6.01021511 54.65698034 3.07047047 68.38838652 -0.01820374 82.09158325 C-1.29435225 87.76080247 -2.50161381 93.42938145 -3.56056213 99.14358521 C-4 101 -4 101 -5 102 C-7.86267567 102.07325168 -10.700719 102.09238205 -13.5625 102.0625 C-14.36880859 102.05798828 -15.17511719 102.05347656 -16.00585938 102.04882812 C-18.00393756 102.03700518 -20.00197783 102.01906914 -22 102 C-22.33280333 95.64290167 -21.07725264 89.94764876 -19.65625 83.76953125 C-19.41131805 82.67706085 -19.16638611 81.58459045 -18.91403198 80.45901489 C-18.11637719 76.90855217 -17.30835823 73.36053962 -16.5 69.8125 C-15.94934066 67.37263327 -15.39937664 64.9326095 -14.85009766 62.49243164 C-13.75226786 57.61766169 -12.65101945 52.7436816 -11.54785156 47.87011719 C-10.17334075 41.78547235 -8.8249925 35.69546341 -7.4921875 29.6015625 C-7.30726746 28.75822861 -7.12234741 27.91489471 -6.93182373 27.04600525 C-5.90519032 22.3642905 -5.90519032 22.3642905 -4.88549805 17.68106079 C-4.43532507 15.60812333 -3.97997146 13.536388 -3.5234375 11.46484375 C-3.27513184 10.326521 -3.02682617 9.18819824 -2.77099609 8.01538086 C-2 5 -2 5 0 0 Z " fill="#B99E5C" transform="translate(127,208)"/>
<path d="M0 0 C5.61 0 11.22 0 17 0 C18.27707403 3.8312221 17.42684866 6.62110257 16.55859375 10.4375 C16.31452286 11.55316093 16.31452286 11.55316093 16.06552124 12.69136047 C15.53027201 15.12927787 14.98392727 17.56456596 14.4375 20 C14.0646434 21.68889075 13.69249667 23.37793838 13.32104492 25.06713867 C12.39355093 29.27603462 11.45717989 33.48288696 10.51672363 37.68890381 C9.77718907 40.99654336 9.04106787 44.30493807 8.3046875 47.61328125 C7.56725135 50.92525035 6.82936552 54.23710855 6.08862305 57.54833984 C3.99105331 66.95312964 2.01999441 76.38231112 0.078125 85.8203125 C-0.10427734 86.68817383 -0.28667969 87.55603516 -0.47460938 88.45019531 C-0.82785735 90.16456422 -1.16221685 91.88292314 -1.47851562 93.60449219 C-1.63513672 94.41305664 -1.79175781 95.22162109 -1.953125 96.0546875 C-2.08364258 96.76866699 -2.21416016 97.48264648 -2.34863281 98.21826172 C-3 100 -3 100 -6 102 C-8.61743658 101.98283648 -11.09222605 101.8673225 -13.6875 101.625 C-14.7403418 101.53992188 -14.7403418 101.53992188 -15.81445312 101.453125 C-17.54380285 101.31195359 -19.27204088 101.15728041 -21 101 C-20.4817713 94.39170291 -19.50272085 88.10604163 -17.92578125 81.671875 C-17.72136917 80.81248825 -17.51695709 79.9531015 -17.30635071 79.06767273 C-16.8711507 77.23819133 -16.43338743 75.40931801 -15.9932251 73.58102417 C-11.80259536 56.15288157 -8.03334393 38.69879109 -4.6171875 21.10400391 C-3.21242566 14.03907429 -1.60162606 7.02251428 0 0 Z " fill="#AE996C" transform="translate(91,208)"/>
<path d="M0 0 C5.94 0 11.88 0 18 0 C14.6215184 18.05197555 10.89991822 36.00528852 6.9375 53.9375 C6.15764767 57.48000776 5.37878005 61.02273 4.60049438 64.56558228 C4.09948847 66.84568683 3.59769752 69.12561906 3.09506226 71.40536499 C1.96130552 76.55939953 0.84324752 81.7154791 -0.22607422 86.88330078 C-0.41084824 87.77594131 -0.59562225 88.66858185 -0.78599548 89.58827209 C-1.12499503 91.23633312 -1.46061967 92.88509334 -1.79225159 94.53465271 C-2.89151465 99.89151465 -2.89151465 99.89151465 -4 101 C-6.6773138 101.09981214 -9.32304175 101.13879875 -12 101.125 C-13.12535156 101.13080078 -13.12535156 101.13080078 -14.2734375 101.13671875 C-19.87338947 101.12661053 -19.87338947 101.12661053 -21 100 C-20.42905675 94.74146843 -19.3529544 89.59661241 -18.2578125 84.42578125 C-18.08877411 83.62069626 -17.91973572 82.81561127 -17.74557495 81.98612976 C-17.38862685 80.28910232 -17.0305446 78.59231309 -16.67138672 76.89575195 C-16.1304146 74.33809957 -15.59424783 71.77947388 -15.05859375 69.22070312 C-13.38634077 61.27169705 -11.63833316 53.36631526 -9.61669922 45.49731445 C-8.7522385 41.99669342 -8.11723092 38.49025181 -7.5 34.9375 C-6.52852542 29.50957856 -5.29446997 24.24491478 -3.76171875 18.94921875 C-2.15044318 12.71069027 -1.13759876 6.33805025 0 0 Z " fill="#84809B" transform="translate(56,208)"/>
<path d="M0 0 C-0.30731987 2.64653131 -0.62059322 5.292115 -0.9375 7.9375 C-1.02451172 8.69224609 -1.11152344 9.44699219 -1.20117188 10.22460938 C-1.88671875 15.88671875 -1.88671875 15.88671875 -3 17 C-4.87297077 17.24519964 -6.74849749 17.47098048 -8.625 17.6875 C-14.5732212 18.64940022 -18.26848508 20.20702776 -22 25 C-25.86589771 31.52460059 -26.1635569 38.43476896 -26.31640625 45.80078125 C-26.33718735 46.63715622 -26.35796844 47.47353119 -26.37937927 48.33525085 C-26.44451034 50.99425421 -26.5035895 53.65335228 -26.5625 56.3125 C-26.60571992 58.12045231 -26.6493353 59.92839522 -26.69335938 61.73632812 C-26.80015416 66.15745622 -26.90152325 70.57867912 -27 75 C-32.28 75 -37.56 75 -43 75 C-43 51.24 -43 27.48 -43 3 C-38.05 3 -33.1 3 -28 3 C-27.67 5.31 -27.34 7.62 -27 10 C-26.34 10 -25.68 10 -25 10 C-25 9.34 -25 8.68 -25 8 C-18.09149105 2.38683648 -9.08110848 -2.56133829 0 0 Z " fill="#0F0F0F" transform="translate(329,232)"/>
<path d="M0 0 C5.28 0 10.56 0 16 0 C16 23.76 16 47.52 16 72 C10.72 72 5.44 72 0 72 C0 48.24 0 24.48 0 0 Z " fill="#060606" transform="translate(253,235)"/>
<path d="M0 0 C5.61 0 11.22 0 17 0 C18.30229948 3.90689843 17.49782652 6.07074566 16.56640625 10.07421875 C16.40961899 10.7580513 16.25283173 11.44188385 16.09129333 12.1464386 C15.58916367 14.32859816 15.07598988 16.50798871 14.5625 18.6875 C14.21997225 20.16714871 13.87816655 21.64696476 13.53710938 23.12695312 C12.69977379 26.75328085 11.85251486 30.37720698 11 34 C10.01 34 9.02 34 8 34 C7.67 34.66 7.34 35.32 7 36 C6.34 34.68 5.68 33.36 5 32 C4.34 32 3.68 32 3 32 C3 29.69 3 27.38 3 25 C1.35 24.67 -0.3 24.34 -2 24 C-2.33 25.32 -2.66 26.64 -3 28 C-3.66 27.67 -4.32 27.34 -5 27 C-3.56674222 17.94518321 -1.82955646 8.981459 0 0 Z " fill="#666FC4" transform="translate(91,208)"/>
<path d="M0 0 C1.39456452 0.00667256 2.78911118 0.01863093 4.18359375 0.03515625 C4.89451172 0.03966797 5.60542969 0.04417969 6.33789062 0.04882812 C8.09899388 0.06064761 9.86005411 0.07858362 11.62109375 0.09765625 C12.84330169 4.46786566 12.32600366 7.73737402 11.40625 12.1484375 C11.27165878 12.80724411 11.13706757 13.46605072 10.99839783 14.14482117 C10.5691732 16.23525724 10.12661191 18.32260463 9.68359375 20.41015625 C9.38908705 21.83249894 9.09545773 23.2550236 8.80273438 24.67773438 C8.08566548 28.15320601 7.35661438 31.62603691 6.62109375 35.09765625 C6.29109375 35.09765625 5.96109375 35.09765625 5.62109375 35.09765625 C5.59399252 32.53508445 5.57420604 29.9728026 5.55859375 27.41015625 C5.55021484 26.68892578 5.54183594 25.96769531 5.53320312 25.22460938 C5.5152221 21.28676383 5.84095788 17.99833559 6.62109375 14.09765625 C0.68109375 14.59265625 0.68109375 14.59265625 -5.37890625 15.09765625 C-5.03663053 18.06831134 -5.03663053 18.06831134 -4.37890625 21.09765625 C-3.71890625 21.42765625 -3.05890625 21.75765625 -2.37890625 22.09765625 C-2.00967548 27.51304087 -2.00967548 27.51304087 -3.87890625 30.47265625 C-4.37390625 31.00890625 -4.86890625 31.54515625 -5.37890625 32.09765625 C-6.69890625 31.76765625 -8.01890625 31.43765625 -9.37890625 31.09765625 C-9.69498447 24.28171315 -8.52413472 18.2744788 -6.94140625 11.66015625 C-6.71130859 10.65533203 -6.48121094 9.65050781 -6.24414062 8.61523438 C-4.26324364 0.12321513 -4.26324364 0.12321513 0 0 Z " fill="#666DBE" transform="translate(130.37890625,207.90234375)"/>
<path d="M0 0 C2.93200693 2.08326808 3.82319306 3.45779204 4.9375 6.875 C5.01494522 10.74726087 4.06519782 12.75468914 2 16 C-1.68459187 18.45639458 -4.72230442 18.80884302 -9 18 C-12.35264284 15.57468391 -13.7040607 13.94700576 -14.9375 10 C-15.0080861 6.61186727 -14.79220372 4.88311033 -13 2 C-8.46272393 -1.16554144 -5.30041597 -1.47233777 0 0 Z " fill="#1F1F1F" transform="translate(266,208)"/>
<path d="M0 0 C1.32 0.66 2.64 1.32 4 2 C4.25280556 8.44654183 3.99786776 12.88332629 0.4375 18.4375 C-1.2150998 21.38343877 -1.598768 23.65639998 -2 27 C-2.185625 28.19625 -2.37125 29.3925 -2.5625 30.625 C-3.08570269 34.09392861 -3.08570269 34.09392861 -3 38 C0.465 37.505 0.465 37.505 4 37 C4 36.34 4 35.68 4 35 C6.475 34.505 6.475 34.505 9 34 C9.02715383 32.25008666 9.04646551 30.50005055 9.0625 28.75 C9.07410156 27.77546875 9.08570312 26.8009375 9.09765625 25.796875 C9.01195577 23.34241322 8.70706066 21.33831086 8 19 C9.32 19 10.64 19 12 19 C12.13277344 18.08476562 12.26554687 17.16953125 12.40234375 16.2265625 C12.57894531 15.03804688 12.75554688 13.84953125 12.9375 12.625 C13.19853516 10.84996094 13.19853516 10.84996094 13.46484375 9.0390625 C14 6 14 6 15 4 C15.66 4 16.32 4 17 4 C15.82758016 12.13694366 14.16883478 20.15398273 12.4375 28.1875 C12.21553955 29.227854 11.9935791 30.26820801 11.76489258 31.34008789 C11.55243896 32.31453857 11.33998535 33.28898926 11.12109375 34.29296875 C10.83383423 35.61590942 10.83383423 35.61590942 10.54077148 36.96557617 C10 39 10 39 9 40 C6.3226862 40.09981214 3.67695825 40.13879875 1 40.125 C-0.12535156 40.13080078 -0.12535156 40.13080078 -1.2734375 40.13671875 C-6.87338947 40.12661053 -6.87338947 40.12661053 -8 39 C-7.45931205 34.03550153 -6.45628915 29.18536331 -5.37109375 24.31640625 C-5.21713638 23.61603745 -5.06317902 22.91566864 -4.90455627 22.19407654 C-4.41794037 19.98301311 -3.92778303 17.77275284 -3.4375 15.5625 C-3.10458213 14.05278631 -2.77189762 12.54302113 -2.43945312 11.03320312 C-1.62899707 7.35486845 -0.81536655 3.67724915 0 0 Z " fill="#DBC87D" transform="translate(43,269)"/>
<path d="M0 0 C5.94 0 11.88 0 18 0 C16.35 8.58 14.7 17.16 13 26 C11.33333333 26 9.66666667 26 8 26 C7.8744186 20.4744186 7.8744186 20.4744186 8.5625 17.875 C9.09000994 15.6142431 8.70227228 14.18484708 8 12 C8.66 12 9.32 12 10 12 C11.14814997 9.70370006 11.30769809 7.92301914 11.5625 5.375 C11.64628906 4.55773437 11.73007813 3.74046875 11.81640625 2.8984375 C11.87699219 2.27195313 11.93757813 1.64546875 12 1 C10.35 1.33 8.7 1.66 7 2 C6.67 2.99 6.34 3.98 6 5 C5.01 5.33 4.02 5.66 3 6 C3 6.99 3 7.98 3 9 C2.5359375 10.051875 2.5359375 10.051875 2.0625 11.125 C0.46731228 15.44139031 -0.7065865 20.56365303 0.6015625 25.07421875 C1 27 1 27 -0.9375 30.25 C-1.9584375 31.61125 -1.9584375 31.61125 -3 33 C-3.89705448 30.01137209 -4.04157359 27.64836053 -3.73046875 24.55078125 C-3.64603516 23.70193359 -3.56160156 22.85308594 -3.47460938 21.97851562 C-3.37986328 21.09873047 -3.28511719 20.21894531 -3.1875 19.3125 C-3.10435547 18.45205078 -3.02121094 17.59160156 -2.93554688 16.70507812 C-2.34778315 11.01192146 -1.33631864 5.56517509 0 0 Z " fill="#5566D6" transform="translate(56,208)"/>
<path d="M0 0 C0.66 0 1.32 0 2 0 C5.23168823 6.46337647 0.93258728 17.85389841 -0.5 24.5625 C-0.72558594 25.65369141 -0.95117188 26.74488281 -1.18359375 27.86914062 C-2.86811242 35.86811242 -2.86811242 35.86811242 -4 37 C-6.86267567 37.07325168 -9.700719 37.09238205 -12.5625 37.0625 C-13.36880859 37.05798828 -14.17511719 37.05347656 -15.00585938 37.04882812 C-17.00393756 37.03700518 -19.00197783 37.01906914 -21 37 C-21.21412764 28.60823585 -18.96029045 22.35482512 -15 15 C-13.51193688 20.02221304 -13.61642598 23.3730622 -16 28 C-16.38290462 29.99110401 -16.72604615 31.99100513 -17 34 C-14.36 33.67 -11.72 33.34 -9 33 C-9 32.34 -9 31.68 -9 31 C-8.01 31 -7.02 31 -6 31 C-4.68 25.72 -3.36 20.44 -2 15 C-2.99 15.33 -3.98 15.66 -5 16 C-4.55090939 14.51800098 -4.09043436 13.03944764 -3.625 11.5625 C-3.24214844 10.32693359 -3.24214844 10.32693359 -2.8515625 9.06640625 C-2 7 -2 7 0 6 C0 4.02 0 2.04 0 0 Z " fill="#F2C421" transform="translate(126,273)"/>
<path d="M0 0 C0.33 0 0.66 0 1 0 C0.33511348 7.09951055 -0.88420757 13.96715801 -2.375 20.9375 C-2.58382812 21.97712891 -2.79265625 23.01675781 -3.0078125 24.08789062 C-3.21921875 25.07853516 -3.430625 26.06917969 -3.6484375 27.08984375 C-3.83583496 27.98566162 -4.02323242 28.88147949 -4.21630859 29.80444336 C-5 32 -5 32 -8 34 C-10.61743658 33.98283648 -13.09222605 33.8673225 -15.6875 33.625 C-16.7403418 33.53992188 -16.7403418 33.53992188 -17.81445312 33.453125 C-19.54380285 33.31195359 -21.27204088 33.15728041 -23 33 C-22.38277416 23.43299944 -20.1798659 14.30752043 -18 5 C-17.01 5 -16.02 5 -15 5 C-14.01183262 7.96450213 -13.92295258 9.91810326 -14 13 C-14 13.99 -14 14.98 -14 16 C-14.66 16.33 -15.32 16.66 -16 17 C-16.61845595 18.80247502 -16.61845595 18.80247502 -17 21 C-17.17660156 21.85078125 -17.35320312 22.7015625 -17.53515625 23.578125 C-17.70917969 24.45984375 -17.88320312 25.3415625 -18.0625 26.25 C-18.23910156 27.14203125 -18.41570312 28.0340625 -18.59765625 28.953125 C-18.73042969 29.62859375 -18.86320312 30.3040625 -19 31 C-16.36 29.68 -13.72 28.36 -11 27 C-10.67 27.99 -10.34 28.98 -10 30 C-8.35429841 28.94369738 -8.35429841 28.94369738 -7 27 C-6.95758277 24.66705225 -6.95907063 22.33297433 -7 20 C-6.69191406 19.39414062 -6.38382813 18.78828125 -6.06640625 18.1640625 C-4.27522647 14.52921415 -4.10184856 10.56454246 -3.5625 6.58203125 C-3.376875 5.72996094 -3.19125 4.87789063 -3 4 C-2.34 3.67 -1.68 3.34 -1 3 C-0.67 2.01 -0.34 1.02 0 0 Z " fill="#E2C873" transform="translate(93,276)"/>
<path d="M0 0 C4.62 0 9.24 0 14 0 C14 0.99 14 1.98 14 3 C14.66 3 15.32 3 16 3 C16 3.66 16 4.32 16 5 C15.01 5 14.02 5 13 5 C13.2784375 5.928125 13.2784375 5.928125 13.5625 6.875 C14 9 14 9 13 11 C12.34 11 11.68 11 11 11 C11 12.32 11 13.64 11 15 C10.01 15.33 9.02 15.66 8 16 C7.34 15.67 6.68 15.34 6 15 C6 15.66 6 16.32 6 17 C5.34 17 4.68 17 4 17 C4 16.34 4 15.68 4 15 C2.35 15 0.7 15 -1 15 C-1.02749766 13.62511713 -1.0466164 12.25006609 -1.0625 10.875 C-1.07410156 10.10929688 -1.08570312 9.34359375 -1.09765625 8.5546875 C-1 6 -1 6 0 0 Z " fill="#4E60D5" transform="translate(92,209)"/>
<path d="M0 0 C1.39456452 0.00667256 2.78911118 0.01863093 4.18359375 0.03515625 C4.89451172 0.03966797 5.60542969 0.04417969 6.33789062 0.04882812 C8.09899388 0.06064761 9.86005411 0.07858362 11.62109375 0.09765625 C12.73828125 4.80859375 12.73828125 4.80859375 11.68359375 7.41015625 C11.15765625 8.24546875 11.15765625 8.24546875 10.62109375 9.09765625 C9.62109375 6.09765625 9.62109375 6.09765625 10.62109375 2.09765625 C4.18609375 2.59265625 4.18609375 2.59265625 -2.37890625 3.09765625 C-3.95960529 9.32165872 -4.58264033 14.68003266 -4.37890625 21.09765625 C-3.71890625 21.42765625 -3.05890625 21.75765625 -2.37890625 22.09765625 C-2.00967548 27.51304087 -2.00967548 27.51304087 -3.87890625 30.47265625 C-4.37390625 31.00890625 -4.86890625 31.54515625 -5.37890625 32.09765625 C-6.69890625 31.76765625 -8.01890625 31.43765625 -9.37890625 31.09765625 C-9.69498447 24.28171315 -8.52413472 18.2744788 -6.94140625 11.66015625 C-6.71130859 10.65533203 -6.48121094 9.65050781 -6.24414062 8.61523438 C-4.26324364 0.12321513 -4.26324364 0.12321513 0 0 Z " fill="#848098" transform="translate(130.37890625,207.90234375)"/>
<path d="M0 0 C0.99 0.33 1.98 0.66 3 1 C1.02 9.91 -0.96 18.82 -3 28 C-3.99 28 -4.98 28 -6 28 C-6.33 28.66 -6.66 29.32 -7 30 C-9.42148723 25.44190638 -9.07107546 21.87388467 -8 17 C-6.9375 14 -6.9375 14 -6 12 C-4.68 12 -3.36 12 -2 12 C-2 10.02 -2 8.04 -2 6 C-1.34 6 -0.68 6 0 6 C0 4.02 0 2.04 0 0 Z " fill="#747DBD" transform="translate(105,214)"/>
<path d="M0 0 C0.33 0 0.66 0 1 0 C0.34941146 7.17143004 -0.98125679 14.04213448 -2.5625 21.0625 C-2.79646484 22.11888672 -3.03042969 23.17527344 -3.27148438 24.26367188 C-3.84345645 26.84338268 -4.42113911 29.42182623 -5 32 C-9.95 32 -14.9 32 -20 32 C-20.33 30.68 -20.66 29.36 -21 28 C-20.34 28.33 -19.68 28.66 -19 29 C-19 29.66 -19 30.32 -19 31 C-16.36 29.68 -13.72 28.36 -11 27 C-10.67 27.99 -10.34 28.98 -10 30 C-8.35429841 28.94369738 -8.35429841 28.94369738 -7 27 C-6.95758277 24.66705225 -6.95907063 22.33297433 -7 20 C-6.69191406 19.39414062 -6.38382813 18.78828125 -6.06640625 18.1640625 C-4.27522647 14.52921415 -4.10184856 10.56454246 -3.5625 6.58203125 C-3.376875 5.72996094 -3.19125 4.87789063 -3 4 C-2.34 3.67 -1.68 3.34 -1 3 C-0.67 2.01 -0.34 1.02 0 0 Z " fill="#E2BD3B" transform="translate(93,276)"/>
<path d="M0 0 C0.66 0 1.32 0 2 0 C2.25028811 1.58013217 2.47440946 3.16442306 2.6875 4.75 C2.81511719 5.63171875 2.94273438 6.5134375 3.07421875 7.421875 C2.98397191 10.55676517 2.07384637 11.71823587 0 14 C0.99 14 1.98 14 3 14 C2.38461538 20.52307692 2.38461538 20.52307692 0.4375 22.9375 C-0.036875 23.288125 -0.51125 23.63875 -1 24 C-0.34 24.66 0.32 25.32 1 26 C-0.98 26.99 -2.96 27.98 -5 29 C-4.28272968 22.59741861 -3.17132555 16.32172104 -1.9375 10 C-1.75123047 9.03449219 -1.56496094 8.06898438 -1.37304688 7.07421875 C-0.91768657 4.71568591 -0.45995713 2.35763989 0 0 Z " fill="#8F8CA3" transform="translate(85,235)"/>
<path d="M0 0 C1.32 0.66 2.64 1.32 4 2 C4.25572912 8.52109256 3.89689831 12.88908677 0.4375 18.5625 C-0.87112025 20.78146478 -1.53532436 22.49075157 -2 25 C-2.33 25 -2.66 25 -3 25 C-3.48032656 16.28296246 -2.07313419 8.45295786 0 0 Z " fill="#AE976F" transform="translate(43,269)"/>
<path d="M0 0 C0.66 0 1.32 0 2 0 C5.00492254 6.00984507 1.26190655 16.30715957 -0.0625 22.625 C-0.3419043 23.98818359 -0.3419043 23.98818359 -0.62695312 25.37890625 C-1.08017296 27.5869003 -1.53789693 29.79385124 -2 32 C-2.33 32 -2.66 32 -3 32 C-2.67 26.39 -2.34 20.78 -2 15 C-2.99 15.33 -3.98 15.66 -5 16 C-4.55090939 14.51800098 -4.09043436 13.03944764 -3.625 11.5625 C-3.36976562 10.73878906 -3.11453125 9.91507812 -2.8515625 9.06640625 C-2 7 -2 7 0 6 C0 4.02 0 2.04 0 0 Z " fill="#E2C668" transform="translate(126,273)"/>
<path d="M0 0 C1.39456452 0.00667256 2.78911118 0.01863093 4.18359375 0.03515625 C4.89451172 0.03966797 5.60542969 0.04417969 6.33789062 0.04882812 C8.09899388 0.06064761 9.86005411 0.07858362 11.62109375 0.09765625 C12.73828125 4.80859375 12.73828125 4.80859375 11.68359375 7.41015625 C11.15765625 8.24546875 11.15765625 8.24546875 10.62109375 9.09765625 C9.62109375 6.09765625 9.62109375 6.09765625 10.62109375 2.09765625 C4.18609375 2.59265625 4.18609375 2.59265625 -2.37890625 3.09765625 C-2.68828125 4.50015625 -2.99765625 5.90265625 -3.31640625 7.34765625 C-3.96239719 10.2761485 -4.63901412 13.19141328 -5.37890625 16.09765625 C-6.03890625 16.09765625 -6.69890625 16.09765625 -7.37890625 16.09765625 C-6.90436754 13.61751996 -6.4245164 11.13862369 -5.94140625 8.66015625 C-5.80669922 7.95310547 -5.67199219 7.24605469 -5.53320312 6.51757812 C-4.2788953 0.12366749 -4.2788953 0.12366749 0 0 Z " fill="#9296C3" transform="translate(130.37890625,207.90234375)"/>
<path d="M0 0 C1.17629657 3.47525916 0.81182496 5.87491481 0.00390625 9.421875 C-0.33930664 10.95908203 -0.33930664 10.95908203 -0.68945312 12.52734375 C-0.93630859 13.59082031 -1.18316406 14.65429688 -1.4375 15.75 C-1.68048828 16.82894531 -1.92347656 17.90789062 -2.17382812 19.01953125 C-2.77456295 21.68161107 -3.38355513 24.34152209 -4 27 C-4.33 27 -4.66 27 -5 27 C-5 19.08 -5 11.16 -5 3 C-3.35 3 -1.7 3 0 3 C0 2.01 0 1.02 0 0 Z " fill="#BDAC7F" transform="translate(134,248)"/>
<path d="M0 0 C0.33 0 0.66 0 1 0 C1.16759984 2.1249266 1.33405201 4.24994376 1.5 6.375 C1.5928125 7.55835938 1.685625 8.74171875 1.78125 9.9609375 C1.90195454 11.63786843 2 13.31873056 2 15 C1.34 15 0.68 15 0 15 C-0.433125 16.0828125 -0.433125 16.0828125 -0.875 17.1875 C-1.91666667 19.79166667 -2.95833333 22.39583333 -4 25 C-5.11991797 21.63684208 -4.85748516 19.42994063 -4.00390625 16.015625 C-3.77509766 15.08105469 -3.54628906 14.14648438 -3.31054688 13.18359375 C-3.06369141 12.21550781 -2.81683594 11.24742187 -2.5625 10.25 C-2.19801758 8.77466797 -2.19801758 8.77466797 -1.82617188 7.26953125 C-1.22571669 4.84416327 -0.61673274 2.42127055 0 0 Z " fill="#AC9E82" transform="translate(118,246)"/>
<path d="M0 0 C0.33 0 0.66 0 1 0 C1.07972012 4.7034873 0.93491183 8.32544083 0 13 C4.62 13 9.24 13 14 13 C14 12.34 14 11.68 14 11 C14.66 11 15.32 11 16 11 C15.67 12.32 15.34 13.64 15 15 C9.39 15 3.78 15 -2 15 C-2 8.97206487 -1.55700564 5.5468326 0 0 Z " fill="#F4DD79" transform="translate(107,295)"/>
<path d="M0 0 C0.33 0 0.66 0 1 0 C1.33 1.65 1.66 3.3 2 5 C3.32 4.67 4.64 4.34 6 4 C4.79618552 6.49361571 3.54571278 8.68143083 2 11 C1.65649371 12.33074878 1.32387312 13.66433721 1 15 C0.34859204 16.43362072 -0.3396927 17.85101812 -1.0625 19.25 C-1.42472656 19.95640625 -1.78695312 20.6628125 -2.16015625 21.390625 C-2.43730469 21.92171875 -2.71445313 22.4528125 -3 23 C-4.01498547 19.82540369 -3.94466465 17.69122329 -3.22265625 14.453125 C-3.03896484 13.60878906 -2.85527344 12.76445312 -2.66601562 11.89453125 C-2.46685547 11.02183594 -2.26769531 10.14914062 -2.0625 9.25 C-1.86720703 8.36183594 -1.67191406 7.47367187 -1.47070312 6.55859375 C-0.98838288 4.37050678 -0.49790968 2.1845827 0 0 Z " fill="#D8BE67" transform="translate(112,271)"/>
<path d="M0 0 C0.66 0 1.32 0 2 0 C1.3533822 4.0035272 0.6811736 8.00221563 0 12 C-0.15597656 12.96292969 -0.31195313 13.92585938 -0.47265625 14.91796875 C-0.62605469 15.79066406 -0.77945313 16.66335938 -0.9375 17.5625 C-1.07027344 18.34753906 -1.20304687 19.13257813 -1.33984375 19.94140625 C-2 22 -2 22 -5 25 C-5.66 21.7 -6.32 18.4 -7 15 C-5.68 15 -4.36 15 -3 15 C-2.86722656 14.08476562 -2.73445313 13.16953125 -2.59765625 12.2265625 C-2.42105469 11.03804688 -2.24445312 9.84953125 -2.0625 8.625 C-1.88847656 7.44164062 -1.71445312 6.25828125 -1.53515625 5.0390625 C-1 2 -1 2 0 0 Z " fill="#BCB190" transform="translate(58,273)"/>
<path d="M0 0 C0.99 0 1.98 0 3 0 C3.98816738 2.96450213 4.07704742 4.91810326 4 8 C4 8.99 4 9.98 4 11 C3.01 11.495 3.01 11.495 2 12 C1.34786708 14.02463255 1.34786708 14.02463255 1 16 C0.34 16 -0.32 16 -1 16 C-1.02712153 14.083412 -1.04645097 12.1667127 -1.0625 10.25 C-1.07410156 9.18265625 -1.08570312 8.1153125 -1.09765625 7.015625 C-1.01510087 4.46631499 -0.74617558 2.42066409 0 0 Z " fill="#CAB46E" transform="translate(75,281)"/>
<path d="M0 0 C0.33 0 0.66 0 1 0 C0.66801222 7.50979246 0.28621815 14.16466624 -3 21 C-3.66 21.33 -4.32 21.66 -5 22 C-5.1255814 16.4744186 -5.1255814 16.4744186 -4.4375 13.875 C-3.90999006 11.6142431 -4.29772772 10.18484708 -5 8 C-4.34 8 -3.68 8 -3 8 C-2.01 5.36 -1.02 2.72 0 0 Z " fill="#4B5FD8" transform="translate(69,212)"/>
<path d="M0 0 C4.62 0 9.24 0 14 0 C13.67 0.66 13.34 1.32 13 2 C11.35 2 9.7 2 8 2 C8 2.99 8 3.98 8 5 C3.77777778 8 3.77777778 8 1 8 C0.67 5.36 0.34 2.72 0 0 Z " fill="#4256DA" transform="translate(92,209)"/>
<path d="M0 0 C1 3 1 3 0.125 5.125 C-1 7 -1 7 -2 8 C-1.34 8.66 -0.68 9.32 0 10 C-1.98 10.99 -3.96 11.98 -6 13 C-5 4.42857143 -5 4.42857143 -4 1 C-2.68 0.67 -1.36 0.34 0 0 Z " fill="#8A848C" transform="translate(86,251)"/>
<path d="M0 0 C0.33 0 0.66 0 1 0 C1.77391229 5.91745245 2.06640077 11.0755513 1 17 C1 18.32 1 19.64 1 21 C-0.32 21 -1.64 21 -3 21 C-2.68981396 18.4372008 -2.37693109 15.8747789 -2.0625 13.3125 C-1.97548828 12.59126953 -1.88847656 11.87003906 -1.79882812 11.12695312 C-1.33686195 7.37989416 -0.80832321 3.69207089 0 0 Z " fill="#C6AE70" transform="translate(39,286)"/>
<path d="M0 0 C0.33 0.66 0.66 1.32 1 2 C1.66 2.33 2.32 2.66 3 3 C2.25 4.9375 2.25 4.9375 1 7 C-1.125 7.75 -1.125 7.75 -3 8 C-3 8.99 -3 9.98 -3 11 C-2.01 10.67 -1.02 10.34 0 10 C-1.13304992 13.39914975 -2.12518475 14.05254451 -5 16 C-4.93970033 14.08247047 -4.85083293 12.16582574 -4.75 10.25 C-4.70359375 9.18265625 -4.6571875 8.1153125 -4.609375 7.015625 C-3.89410286 3.47594492 -2.74415095 2.26118038 0 0 Z " fill="#6E70AC" transform="translate(53,241)"/>
<path d="M0 0 C0.33 0 0.66 0 1 0 C0.32545897 7.8246759 -1.26876958 15.34556614 -3 23 C-3.33 23 -3.66 23 -4 23 C-3.67 16.73 -3.34 10.46 -3 4 C-2.34 3.67 -1.68 3.34 -1 3 C-0.67 2.01 -0.34 1.02 0 0 Z " fill="#D1BF7D" transform="translate(93,276)"/>
<path d="M0 0 C0.99 0 1.98 0 3 0 C2.45136137 6.7857936 1.45732062 13.35009036 0 20 C-0.33 20 -0.66 20 -1 20 C-1.02703562 17.41659616 -1.04685611 14.83347692 -1.0625 12.25 C-1.07087891 11.52039063 -1.07925781 10.79078125 -1.08789062 10.0390625 C-1.10391684 6.51329442 -0.95292713 3.38965084 0 0 Z " fill="#9997AA" transform="translate(137,223)"/>
<path d="M0 0 C0.33 0 0.66 0 1 0 C1.09945415 6.11090483 1.0712828 11.97403427 0 18 C-0.99 18.33 -1.98 18.66 -3 19 C-3.33 19.66 -3.66 20.32 -4 21 C-2.87723429 13.94090922 -1.62436599 6.96156852 0 0 Z " fill="#878CCE" transform="translate(52,226)"/>
<path d="M0 0 C0.99 0.33 1.98 0.66 3 1 C2.75 3.375 2.75 3.375 2 6 C0.0625 7.1875 0.0625 7.1875 -2 8 C-2.66 8.66 -3.32 9.32 -4 10 C-3.5205537 5.78087253 -2.83374881 3.20336822 0 0 Z " fill="#C5A44D" transform="translate(117,268)"/>
<path d="M0 0 C0.99 0.33 1.98 0.66 3 1 C3 1.66 3 2.32 3 3 C3.66 3.33 4.32 3.66 5 4 C4.67 4.99 4.34 5.98 4 7 C2.02 7.33 0.04 7.66 -2 8 C-2.20086443 4.28400809 -2.1519437 3.22791555 0 0 Z " fill="#9E8F79" transform="translate(130,244)"/>
<path d="M0 0 C0.99 0 1.98 0 3 0 C5 3 5 3 5 7 C4.01 7 3.02 7 2 7 C1.67 7.66 1.34 8.32 1 9 C-1.09230769 4.56923077 -1.09230769 4.56923077 -0.625 1.6875 C-0.41875 1.130625 -0.2125 0.57375 0 0 Z " fill="#7B7CAA" transform="translate(97,235)"/>
<path d="M0 0 C1.65 0 3.3 0 5 0 C5 1.32 5 2.64 5 4 C4.01 4.33 3.02 4.66 2 5 C2 5.99 2 6.98 2 8 C1.01 8.495 1.01 8.495 0 9 C-1.125 3.375 -1.125 3.375 0 0 Z " fill="#344DEA" transform="translate(57,209)"/>
<path d="M0 0 C1.98 0.99 1.98 0.99 4 2 C4 3.98 4 5.96 4 8 C2.68 8.33 1.36 8.66 0 9 C0 6.03 0 3.06 0 0 Z " fill="#9A8F89" transform="translate(43,269)"/>
<path d="M0 0 C0.33 0 0.66 0 1 0 C1.40368295 6.45892714 0.5915262 11.06108578 -2 17 C-3.44715727 13.12813552 -2.5441918 10.1767672 -1.5625 6.25 C-1.27503906 5.07953125 -0.98757812 3.9090625 -0.69140625 2.703125 C-0.46324219 1.81109375 -0.23507813 0.9190625 0 0 Z " fill="#C8BA9E" transform="translate(116,254)"/>
<path d="M0 0 C0.33 0 0.66 0 1 0 C0.85904936 1.6254308 0.71207913 3.25034051 0.5625 4.875 C0.48128906 5.77992188 0.40007812 6.68484375 0.31640625 7.6171875 C0 10 0 10 -1 12 C-1.99 12 -2.98 12 -4 12 C-4.33 10.68 -4.66 9.36 -5 8 C-4.34 8 -3.68 8 -3 8 C-2.01 5.36 -1.02 2.72 0 0 Z " fill="#3A55EB" transform="translate(69,212)"/>
<path d="M0 0 C0.33 0 0.66 0 1 0 C1.19627391 1.58226965 1.38165538 3.16589271 1.5625 4.75 C1.66691406 5.63171875 1.77132812 6.5134375 1.87890625 7.421875 C1.99456676 9.88432451 1.73638695 11.66538064 1 14 C0.34 14 -0.32 14 -1 14 C-1.027193 12.41676312 -1.04648306 10.83338938 -1.0625 9.25 C-1.07410156 8.36828125 -1.08570312 7.4865625 -1.09765625 6.578125 C-1.00826198 4.2181162 -0.66912821 2.25501476 0 0 Z " fill="#DCC16B" transform="translate(73,290)"/>
<path d="M0 0 C2.49388574 4.98777148 1.88836125 6.66983248 1 12 C0.01 12 -0.98 12 -2 12 C-1.34 8.04 -0.68 4.08 0 0 Z " fill="#7F84C0" transform="translate(88,223)"/>
<path d="M0 0 C5.61 0 11.22 0 17 0 C17 1.32 17 2.64 17 4 C16.34 4 15.68 4 15 4 C15 3.01 15 2.02 15 1 C10.38 1 5.76 1 1 1 C0.67 1.66 0.34 2.32 0 3 C0 2.01 0 1.02 0 0 Z " fill="#8F98D9" transform="translate(91,208)"/>
<path d="M0 0 C1.98362069 2.91708924 1.9876191 4.12380904 1.625 7.75 C1.41875 8.8225 1.2125 9.895 1 11 C0.01 10.34 -0.98 9.68 -2 9 C-2 8.01 -2 7.02 -2 6 C-2.99 5.67 -3.98 5.34 -5 5 C-3.35 4.34 -1.7 3.68 0 3 C0 2.01 0 1.02 0 0 Z " fill="#8888B2" transform="translate(63,246)"/>
<path d="M0 0 C0.99 0.33 1.98 0.66 3 1 C3.625 2.875 3.625 2.875 4 5 C4.33 5.99 4.66 6.98 5 8 C4.67 8.66 4.34 9.32 4 10 C3.34 10 2.68 10 2 10 C-0.09350689 6.5980513 -0.17942163 3.94727588 0 0 Z " fill="#7777A3" transform="translate(123,224)"/>
<path d="M0 0 C0.66 0.33 1.32 0.66 2 1 C1.67 3.97 1.34 6.94 1 10 C-1.0625 8.25 -1.0625 8.25 -3 6 C-2.75 3.75 -2.75 3.75 -2 2 C-1.34 2 -0.68 2 0 2 C0 1.34 0 0.68 0 0 Z " fill="#8287BB" transform="translate(102,228)"/>
<path d="M0 0 C1.32 0 2.64 0 4 0 C4.1953125 6.0546875 4.1953125 6.0546875 4 8 C3.34 8.66 2.68 9.32 2 10 C1.34 6.7 0.68 3.4 0 0 Z " fill="#BEA15D" transform="translate(51,288)"/>
<path d="M0 0 C0.33 0 0.66 0 1 0 C1 1.98 1 3.96 1 6 C1.66 6.33 2.32 6.66 3 7 C3 7.66 3 8.32 3 9 C2.34 9 1.68 9 1 9 C1 9.66 1 10.32 1 11 C0.34 11 -0.32 11 -1 11 C-0.67 7.37 -0.34 3.74 0 0 Z " fill="#AEA394" transform="translate(42,272)"/>
<path d="M0 0 C1.13732426 3.40401948 0.83989957 5.77456664 0.0625 9.25 C-0.13214844 10.14203125 -0.32679688 11.0340625 -0.52734375 11.953125 C-0.68332031 12.62859375 -0.83929688 13.3040625 -1 14 C-1.33 14 -1.66 14 -2 14 C-2.33 10.7 -2.66 7.4 -3 4 C-2.01 3.67 -1.02 3.34 0 3 C0 2.01 0 1.02 0 0 Z " fill="#BAB096" transform="translate(134,248)"/>
<path d="M0 0 C0.66 0 1.32 0 2 0 C1.67 2.97 1.34 5.94 1 9 C-0.5625 7.25 -0.5625 7.25 -2 5 C-1.75203633 2.83031791 -1.55766393 1.55766393 0 0 Z " fill="#8D8794" transform="translate(98,245)"/>
<path d="M0 0 C0.66 0.33 1.32 0.66 2 1 C-0.64 3.97 -3.28 6.94 -6 10 C-6.66 9.67 -7.32 9.34 -8 9 C-6.38405168 6.95880212 -4.7143618 4.95927063 -3 3 C-2.34 3 -1.68 3 -1 3 C-0.67 2.01 -0.34 1.02 0 0 Z " fill="#6F6F6F" transform="translate(344,238)"/>
<path d="M0 0 C0.33 0.66 0.66 1.32 1 2 C1.66 2.33 2.32 2.66 3 3 C2.1875 4.9375 2.1875 4.9375 1 7 C0.01 7.33 -0.98 7.66 -2 8 C-1.125 1.125 -1.125 1.125 0 0 Z " fill="#646CC4" transform="translate(53,241)"/>
<path d="M0 0 C0.66 0 1.32 0 2 0 C2.33 2.64 2.66 5.28 3 8 C1.68 8.33 0.36 8.66 -1 9 C-0.67 6.03 -0.34 3.06 0 0 Z " fill="#9394B8" transform="translate(85,235)"/>
<path d="M0 0 C0.99 0.33 1.98 0.66 3 1 C2.2884375 1.61875 2.2884375 1.61875 1.5625 2.25 C-0.16266518 4.182185 -0.56584875 5.48192275 -1 8 C-1.66 8 -2.32 8 -3 8 C-2.45276317 4.62537285 -1.9451 2.91765 0 0 Z " fill="#CDAB44" transform="translate(77,289)"/>
<path d="M0 0 C0.33 0 0.66 0 1 0 C1 3.3 1 6.6 1 10 C0.67 9.34 0.34 8.68 0 8 C-0.99 8.33 -1.98 8.66 -3 9 C-2.01 6.03 -1.02 3.06 0 0 Z " fill="#DFB629" transform="translate(124,280)"/>
<path d="M0 0 C0.33 0 0.66 0 1 0 C1 2.97 1 5.94 1 9 C-0.98 9 -2.96 9 -5 9 C-4.67 8.01 -4.34 7.02 -4 6 C-2.68 6 -1.36 6 0 6 C0 4.02 0 2.04 0 0 Z " fill="#5E68B7" transform="translate(103,220)"/>
<path d="M0 0 C0.33 1.32 0.66 2.64 1 4 C2.32 4.33 3.64 4.66 5 5 C3.02 5.99 1.04 6.98 -1 8 C-0.67 5.36 -0.34 2.72 0 0 Z " fill="#A19993" transform="translate(81,256)"/>
<path d="M0 0 C0 1.32 0 2.64 0 4 C-2.64 4 -5.28 4 -8 4 C-6.68 3.67 -5.36 3.34 -4 3 C-4 2.34 -4 1.68 -4 1 C-2 0 -2 0 0 0 Z " fill="#D4AF3F" transform="translate(51,303)"/>
<path d="M0 0 C0.6875 1.625 0.6875 1.625 1 4 C-0.4375 7.25 -0.4375 7.25 -2 10 C-2.6875 8.375 -2.6875 8.375 -3 6 C-1.5625 2.75 -1.5625 2.75 0 0 Z " fill="#E1BB36" transform="translate(111,288)"/>
<path d="M0 0 C1.5625 1.25 1.5625 1.25 3 3 C2.6875 5.1875 2.6875 5.1875 2 7 C1.01 7 0.02 7 -1 7 C-0.67 4.69 -0.34 2.38 0 0 Z " fill="#8F8DA9" transform="translate(122,228)"/>
</svg>
